<svg viewBox="0 0 24 24" fill="none" xmlns="http://www.w3.org/2000/svg"><path d="M12 22C17.52 22 22 17.52 22 12C22 6.48 17.52 2 12 2C6.48 2 2 6.48 2 12C2 17.52 6.48 22 12 22Z" stroke="currentColor" stroke-width="1.5"/><path opacity="0.5" d="M8 3H9C7.05 8.84 7.05 15.16 9 21H8" stroke="currentColor" stroke-width="1.5" stroke-linecap="round"/><path opacity="0.5" d="M15 3C16.95 8.84 16.95 15.16 15 21" stroke="currentColor" stroke-width="1.5" stroke-linecap="round"/><path opacity="0.5" d="M3 16V15C8.84 16.95 15.16 16.95 21 15V16" stroke="currentColor" stroke-width="1.5" stroke-linecap="round"/><path opacity="0.5" d="M3 9C8.84 7.05 15.16 7.05 21 9" stroke="currentColor" stroke-width="1.5" stroke-linecap="round"/></svg>
