<svg width="24" height="24" viewBox="0 0 24 24" fill="none" xmlns="http://www.w3.org/2000/svg">
<path d="M14.21 9.79C15.43 11.01 15.43 12.99 14.21 14.21C12.99 15.43 11.01 15.43 9.79 14.21C8.57 12.99 8.57 11.01 9.79 9.79C11.01 8.57 12.99 8.57 14.21 9.79Z" stroke="currentColor" stroke-width="1.5" stroke-linecap="round" stroke-linejoin="round"/>
<path opacity="0.4" d="M15.5596 2.15005L16.2896 2.39005C16.9596 2.61005 17.4096 3.24005 17.4096 3.94005V4.99005C17.4096 5.88005 18.1196 6.61005 19.0096 6.63005L20.0596 6.65005C20.6696 6.66005 21.2196 7.01005 21.4896 7.55005L21.8296 8.24005C22.1496 8.87005 22.0196 9.63005 21.5196 10.1301L20.7796 10.8701C20.1496 11.5001 20.1396 12.5201 20.7596 13.1601L21.4896 13.9201C21.9096 14.3601 22.0496 14.9901 21.8596 15.5701L21.6196 16.3C21.3996 16.97 20.7696 17.4201 20.0696 17.4201H19.0196C18.1296 17.4201 17.3996 18.1301 17.3796 19.0201L17.3596 20.07C17.3496 20.68 16.9996 21.23 16.4596 21.5L15.7696 21.84C15.1396 22.16 14.3796 22.0301 13.8796 21.5301L13.1396 20.7901C12.5096 20.1601 11.4896 20.15 10.8496 20.76L10.0896 21.49C9.64956 21.91 9.01956 22.0501 8.43956 21.8601L7.70956 21.6201C7.03956 21.4001 6.58956 20.77 6.58956 20.07V19.0201C6.58956 18.1301 5.87956 17.4 4.98956 17.38L3.93956 17.3601C3.32956 17.3501 2.77956 17 2.50956 16.46L2.16956 15.7701C1.84956 15.1401 1.97956 14.3801 2.47956 13.8801L3.21956 13.1401C3.84956 12.5101 3.85956 11.4901 3.23956 10.8501L2.50956 10.0901C2.08956 9.65005 1.94956 9.01005 2.13956 8.44005L2.37956 7.71005C2.59956 7.04005 3.22956 6.59005 3.92956 6.59005H4.97956C5.86956 6.59005 6.59956 5.88005 6.61956 4.99005L6.63956 3.94005C6.64956 3.33005 6.99956 2.78005 7.54956 2.51005L8.23956 2.17005C8.86956 1.85005 9.62956 1.98005 10.1296 2.48005L10.8696 3.22005C11.4996 3.85005 12.5196 3.86005 13.1596 3.24005L13.9196 2.51005C14.3596 2.09005 14.9896 1.95005 15.5696 2.14005L15.5596 2.15005Z" stroke="currentColor" stroke-width="1.5" stroke-linecap="round" stroke-linejoin="round"/>
</svg>